<svg width="200" height="200" viewBox="0 0 200 200" fill="none" xmlns="http://www.w3.org/2000/svg">
<g filter="url(#filter0_n_3_63)">
<path d="M74.0122 1.21987C85.0242 -0.337999 95.643 -0.0783531 99.5759 0.246203C112.12 0.246203 131.022 3.49177 138.905 5.11456C179.02 14.4618 189.049 24.5879 195.932 52.8244C202.814 81.0608 198.881 111.245 198.881 111.245C198.881 111.245 195.932 151.165 167.418 175.507C138.905 199.848 84.8039 200 84.8039 200C84.8039 200 45.4987 198.875 22.8846 186.217C0.270531 173.559 1.25376 140.455 0.270539 138.507C-0.516038 136.949 0.59828 109.946 1.25376 96.6395C1.90924 88.201 4.20343 68.2083 8.13631 55.7454C13.0524 40.1667 24.8511 24.5879 32.7169 17.7723C46.9531 5.43655 60.2471 3.16721 74.0122 1.21987Z" fill="white"/>
</g>
<path fill-rule="evenodd" clip-rule="evenodd" d="M54 82.5C54 89.5394 48.5 95.5 40.5 85.5C36.5 81.5 28.0688 72.9814 27 65.5C25.5 55 29 47.5 33 42C37.7138 35.5185 54.4933 21.5 73 21.5C90.4444 21.5 99.2603 29.6103 102.973 33.0255C104.048 34.0153 104.696 34.6107 105 34.5C106.354 34.0075 118.854 34.9436 127.854 36.5186C136.854 38.0935 154.5 42.5 161 61C167.5 79.5 162.171 106.5 148.5 110.5C145.146 111.481 140.854 114.019 139.354 116.519C139.314 116.587 139.25 116.696 139.17 116.836C138.538 117.932 136.854 120.849 136.854 119.519C136.854 119.105 136.968 118.501 137.126 117.665C137.54 115.465 138.257 111.659 138 105.5C137.646 97 136 90 131.354 89.2493L131.018 89.1953C126.331 88.4427 118.524 87.1893 108.354 77.5186C101.5 71 100.5 55.5208 100.5 49.5C100.5 48.5 82.7883 49.3029 76 51C69.2117 52.6971 61 56.0186 57.5 63.5186C57.5 63.5186 54 72 54 82.5Z" fill="#212121"/>
<path fill-rule="evenodd" clip-rule="evenodd" d="M40.5 85.5C48.5 95.5 54 89.5394 54 82.5C54 72 57.5 63.5186 57.5 63.5186C61 56.0186 69.2117 52.6971 76 51C82.7883 49.3029 100.5 48.5 100.5 49.5C100.5 55.5208 101.5 71 108.354 77.5186C118.524 87.1893 126.331 88.4427 131.018 89.1953L131.354 89.2493C136 90 137.646 97 138 105.5C138.257 111.659 137.54 115.465 137.126 117.665C136.968 118.501 136.854 119.105 136.854 119.519C136.854 120.849 138.538 117.932 139.17 116.836C139.25 116.696 139.314 116.587 139.354 116.519C140.854 114.019 145.146 111.481 148.5 110.5C153.146 109.981 161.354 111.519 163.354 120.519C165.354 129.519 161.354 136.019 158.854 139.019C156.354 142.019 153.854 143.519 148.354 144.519C143.954 145.319 137.854 145.519 136.854 145.019C135.854 144.519 136.354 146.019 136.354 146.019C133.452 150.449 126 156 124.5 158.186C123 160.373 127.223 168.282 128.5 168.5C128.762 168.545 129.5 169 128.5 170C127.5 171 120 179 110.5 183C97.5378 188.458 81 188 79.5 187C78 186 77.5 176.667 77.5 175.5C72.0133 175.133 66.5486 173.694 61.8544 170.519C45.9701 159.773 42.745 145.099 41.1665 137.917C41.0556 137.413 40.9528 136.945 40.8544 136.519C39.3544 130.019 39.3544 115.519 39.3544 110.519C39.3544 104.888 39.6546 101.086 39.9477 97.3751C40.2271 93.8368 40.5 90.3809 40.5 85.5Z" fill="#212121"/>
<path d="M40.5 85.5C48.5 95.5 54 89.5394 54 82.5C54 72 57.5 63.5186 57.5 63.5186C61 56.0186 69.2117 52.6971 76 51C82.7883 49.3029 100.5 48.5 100.5 49.5C100.5 55.5208 101.5 71 108.354 77.5186C118.524 87.1893 126.331 88.4427 131.018 89.1953L131.354 89.2493C136 90 137.646 97 138 105.5C138.257 111.659 137.54 115.465 137.126 117.665C136.968 118.501 136.854 119.105 136.854 119.519C136.854 120.849 138.538 117.932 139.17 116.836C139.25 116.696 139.314 116.587 139.354 116.519C140.854 114.019 145.146 111.481 148.5 110.5M40.5 85.5C36.5 81.5 28.0688 72.9814 27 65.5C25.5 55 29 47.5 33 42C37.7138 35.5185 54.4933 21.5 73 21.5C90.4444 21.5 99.2603 29.6103 102.973 33.0255C104.048 34.0153 104.696 34.6107 105 34.5C106.354 34.0075 118.854 34.9436 127.854 36.5186C136.854 38.0935 154.5 42.5 161 61C167.5 79.5 162.171 106.5 148.5 110.5M40.5 85.5C40.5 90.3809 40.2271 93.8368 39.9477 97.3751C39.6546 101.086 39.3544 104.888 39.3544 110.519C39.3544 115.519 39.3544 130.019 40.8544 136.519C40.9528 136.945 41.0556 137.413 41.1665 137.917C42.745 145.099 45.9701 159.773 61.8544 170.519C66.5486 173.694 72.0133 175.133 77.5 175.5C77.5 176.667 78 186 79.5 187C81 188 97.5378 188.458 110.5 183C120 179 127.5 171 128.5 170C129.5 169 128.762 168.545 128.5 168.5C127.223 168.282 123 160.373 124.5 158.186C126 156 133.452 150.449 136.354 146.019C136.354 146.019 135.854 144.519 136.854 145.019C137.854 145.519 143.954 145.319 148.354 144.519C153.854 143.519 156.354 142.019 158.854 139.019C161.354 136.019 165.354 129.519 163.354 120.519C161.354 111.519 153.146 109.981 148.5 110.5" stroke="white" stroke-width="3"/>
<defs>
<filter id="filter0_n_3_63" x="0" y="0" width="200" height="200" filterUnits="userSpaceOnUse" color-interpolation-filters="sRGB">
<feFlood flood-opacity="0" result="BackgroundImageFix"/>
<feBlend mode="normal" in="SourceGraphic" in2="BackgroundImageFix" result="shape"/>
<feTurbulence type="fractalNoise" baseFrequency="100 100" stitchTiles="stitch" numOctaves="3" result="noise" seed="6893" />
<feColorMatrix in="noise" type="luminanceToAlpha" result="alphaNoise" />
<feComponentTransfer in="alphaNoise" result="coloredNoise1">
<feFuncA type="discrete" tableValues="0 0 0 0 0 0 0 0 0 0 0 0 0 0 0 0 0 0 0 0 0 0 0 1 1 1 0 0 0 0 0 0 0 0 0 0 0 0 0 0 0 0 0 0 0 0 0 0 0 0 0 0 0 0 0 0 0 0 0 0 0 0 0 0 0 0 0 0 0 0 0 0 0 0 0 0 0 0 0 0 0 0 0 0 0 0 0 0 0 0 0 0 0 0 0 0 0 0 0 0 "/>
</feComponentTransfer>
<feComposite operator="in" in2="shape" in="coloredNoise1" result="noise1Clipped" />
<feComponentTransfer in="alphaNoise" result="coloredNoise2">
<feFuncA type="discrete" tableValues="0 0 0 0 0 0 0 0 0 0 0 0 0 0 0 0 0 0 0 0 0 0 0 0 0 0 0 0 0 0 0 0 0 0 0 0 0 0 0 0 0 0 0 0 0 0 0 0 0 0 0 0 0 0 0 0 0 0 0 0 0 0 0 0 0 0 0 0 0 0 0 0 0 0 1 1 1 0 0 0 0 0 0 0 0 0 0 0 0 0 0 0 0 0 0 0 0 0 0 0 "/>
</feComponentTransfer>
<feComposite operator="in" in2="shape" in="coloredNoise2" result="noise2Clipped" />
<feFlood flood-color="rgba(0, 0, 0, 0.25)" result="color1Flood" />
<feComposite operator="in" in2="noise1Clipped" in="color1Flood" result="color1" />
<feFlood flood-color="rgba(255, 255, 255, 0.25)" result="color2Flood" />
<feComposite operator="in" in2="noise2Clipped" in="color2Flood" result="color2" />
<feMerge result="effect1_noise_3_63">
<feMergeNode in="shape" />
<feMergeNode in="color1" />
<feMergeNode in="color2" />
</feMerge>
</filter>
</defs>
</svg>
